REM DIRINDEX 1\2,1\3,1\4,1\5\6,1\5\7,1\8
REM DIRNAME folder01,folder02,folder03,folder04,folder05,folder06,folder07,folder08
TITLE ""
FILE "110 Åy110ÅzUnit6 (1249 reference_1260 timidity).mp3" MP3
  TRACK 01 AUDIO
    TITLE "0:"
    INDEX 01 00:00:00
  TRACK 02 AUDIO
    TITLE "2:cjc115_4270"
    INDEX 01 00:00:07
  TRACK 03 AUDIO
    TITLE "0:"
    INDEX 01 00:01:36
  TRACK 04 AUDIO
    TITLE "3:cjc115_4271"
    INDEX 01 00:01:42
  TRACK 05 AUDIO
    TITLE "0:"
    INDEX 01 00:04:07
  TRACK 06 AUDIO
    TITLE "4:cjc115_4272"
    INDEX 01 00:04:21
  TRACK 07 AUDIO
    TITLE "0:"
    INDEX 01 00:09:00
  TRACK 08 AUDIO
    TITLE "2:cjc115_4273"
    INDEX 01 00:10:06
  TRACK 09 AUDIO
    TITLE "0:"
    INDEX 01 00:11:19
  TRACK 10 AUDIO
    TITLE "3:cjc115_4274"
    INDEX 01 00:11:21
  TRACK 11 AUDIO
    TITLE "0:"
    INDEX 01 00:12:24
  TRACK 12 AUDIO
    TITLE "4:cjc115_4275"
    INDEX 01 00:12:30
  TRACK 13 AUDIO
    TITLE "0:"
    INDEX 01 00:17:37
  TRACK 14 AUDIO
    TITLE "2:cjc115_4276"
    INDEX 01 00:18:46
  TRACK 15 AUDIO
    TITLE "0:"
    INDEX 01 00:20:04
  TRACK 16 AUDIO
    TITLE "3:cjc115_4277"
    INDEX 01 00:20:10
  TRACK 17 AUDIO
    TITLE "0:"
    INDEX 01 00:21:15
  TRACK 18 AUDIO
    TITLE "4:cjc115_4278"
    INDEX 01 00:21:25
  TRACK 19 AUDIO
    TITLE "0:"
    INDEX 01 00:25:52
  TRACK 20 AUDIO
    TITLE "2:cjc115_4279"
    INDEX 01 00:26:58
  TRACK 21 AUDIO
    TITLE "0:"
    INDEX 01 00:28:12
  TRACK 22 AUDIO
    TITLE "3:cjc115_4280"
    INDEX 01 00:28:15
  TRACK 23 AUDIO
    TITLE "0:"
    INDEX 01 00:30:30
  TRACK 24 AUDIO
    TITLE "4:cjc115_4281"
    INDEX 01 00:30:40
  TRACK 25 AUDIO
    TITLE "0:"
    INDEX 01 00:33:46
  TRACK 26 AUDIO
    TITLE "2:cjc115_4282"
    INDEX 01 00:34:53
  TRACK 27 AUDIO
    TITLE "0:"
    INDEX 01 00:36:03
  TRACK 28 AUDIO
    TITLE "3:cjc115_4283"
    INDEX 01 00:36:11
  TRACK 29 AUDIO
    TITLE "0:"
    INDEX 01 00:39:13
  TRACK 30 AUDIO
    TITLE "4:cjc115_4284"
    INDEX 01 00:39:15
  TRACK 31 AUDIO
    TITLE "0:"
    INDEX 01 00:41:69
  TRACK 32 AUDIO
    TITLE "2:cjc115_4285"
    INDEX 01 00:43:01
  TRACK 33 AUDIO
    TITLE "0:"
    INDEX 01 00:44:24
  TRACK 34 AUDIO
    TITLE "3:cjc115_4286"
    INDEX 01 00:44:30
  TRACK 35 AUDIO
    TITLE "0:"
    INDEX 01 00:46:64
  TRACK 36 AUDIO
    TITLE "4:cjc115_4287"
    INDEX 01 00:46:68
  TRACK 37 AUDIO
    TITLE "0:"
    INDEX 01 00:51:69
  TRACK 38 AUDIO
    TITLE "2:cjc115_4288"
    INDEX 01 00:53:00
  TRACK 39 AUDIO
    TITLE "0:"
    INDEX 01 00:54:21
  TRACK 40 AUDIO
    TITLE "3:cjc115_4289"
    INDEX 01 00:54:30
  TRACK 41 AUDIO
    TITLE "0:"
    INDEX 01 00:57:07
  TRACK 42 AUDIO
    TITLE "4:cjc115_4290"
    INDEX 01 00:57:13
  TRACK 43 AUDIO
    TITLE "0:"
    INDEX 01 01:00:39
  TRACK 44 AUDIO
    TITLE "2:cjc115_4291"
    INDEX 01 01:01:46
  TRACK 45 AUDIO
    TITLE "0:"
    INDEX 01 01:02:46
  TRACK 46 AUDIO
    TITLE "3:cjc115_4292"
    INDEX 01 01:02:54
  TRACK 47 AUDIO
    TITLE "0:"
    INDEX 01 01:05:03
  TRACK 48 AUDIO
    TITLE "4:cjc115_4293"
    INDEX 01 01:05:11
  TRACK 49 AUDIO
    TITLE "0:"
    INDEX 01 01:08:52
  TRACK 50 AUDIO
    TITLE "2:cjc115_4294"
    INDEX 01 01:09:56
  TRACK 51 AUDIO
    TITLE "0:"
    INDEX 01 01:10:69
  TRACK 52 AUDIO
    TITLE "3:cjc115_4295"
    INDEX 01 01:10:71
  TRACK 53 AUDIO
    TITLE "0:"
    INDEX 01 01:13:02
  TRACK 54 AUDIO
    TITLE "4:cjc115_4296"
    INDEX 01 01:13:10
  TRACK 55 AUDIO
    TITLE "0:"
    INDEX 01 01:16:07
  TRACK 56 AUDIO
    TITLE "2:cjc115_4297"
    INDEX 01 01:17:08
  TRACK 57 AUDIO
    TITLE "0:"
    INDEX 01 01:18:33
  TRACK 58 AUDIO
    TITLE "3:cjc115_4298"
    INDEX 01 01:18:41
  TRACK 59 AUDIO
    TITLE "0:"
    INDEX 01 01:20:55
  TRACK 60 AUDIO
    TITLE "4:cjc115_4299"
    INDEX 01 01:20:63
  TRACK 61 AUDIO
    TITLE "0:"
    INDEX 01 01:25:45
  TRACK 62 AUDIO
    TITLE "2:cjc115_4300"
    INDEX 01 01:26:54
  TRACK 63 AUDIO
    TITLE "0:"
    INDEX 01 01:27:69
  TRACK 64 AUDIO
    TITLE "3:cjc115_4301"
    INDEX 01 01:28:04
  TRACK 65 AUDIO
    TITLE "0:"
    INDEX 01 01:30:42
  TRACK 66 AUDIO
    TITLE "4:cjc115_4302"
    INDEX 01 01:30:50
  TRACK 67 AUDIO
    TITLE "0:"
    INDEX 01 01:35:06
  TRACK 68 AUDIO
    TITLE "2:cjc115_4303"
    INDEX 01 01:36:13
  TRACK 69 AUDIO
    TITLE "0:"
    INDEX 01 01:37:30
  TRACK 70 AUDIO
    TITLE "3:cjc115_4304"
    INDEX 01 01:37:38
  TRACK 71 AUDIO
    TITLE "0:"
    INDEX 01 01:40:09
  TRACK 72 AUDIO
    TITLE "4:cjc115_4305"
    INDEX 01 01:40:11
  TRACK 73 AUDIO
    TITLE "0:"
    INDEX 01 01:43:60
